Coordinates
version=1
nRows=43
nColumns=12
inDegrees=yes

Units are S.I. units (second, meters, Newtons, ...)
Angles are in degrees

endheader
time	SC_y	SC_z	SC_x	AC_y	AC_z	AC_x	GH_y	GH_z	GH_yy	EL_x	PS_y
       0.0              -46.35          30.73          52.93          65.29         -9.515          19.64         -49.19         -9.095          125.6          100.6          150.3
   0.03695              -46.34          30.73          52.93          65.29         -9.513          19.64         -49.19         -9.084          125.6          100.6          150.3
   0.07391              -46.34          30.73          52.93          65.28         -9.511          19.64         -49.19         -9.073          125.5          100.6          150.3
    0.1109              -46.34          30.72          52.93          65.28          -9.51          19.64         -49.19         -9.061          125.5          100.6          150.3
    0.1478              -46.33          30.72          52.93          65.28         -9.508          19.63         -49.19         -9.048          125.4          100.6          150.2
    0.1848              -46.33          30.72          52.94          65.28         -9.506          19.63         -49.19         -9.035          125.4          100.5          150.2
    0.2217              -46.32          30.72          52.94          65.27         -9.503          19.63         -49.19          -9.02          125.4          100.5          150.2
    0.2587              -46.32          30.71          52.94          65.27         -9.501          19.63         -49.19         -9.005          125.3          100.5          150.2
    0.2956              -46.31          30.71          52.94          65.27         -9.499          19.63         -49.19         -8.988          125.3          100.5          150.2
    0.3326               -46.3          30.71          52.94          65.27         -9.496          19.62          -49.2          -8.97          125.2          100.5          150.2
    0.3695               -46.3           30.7          52.95          65.26         -9.493          19.62          -49.2         -8.951          125.1          100.4          150.2
    0.4065              -46.29           30.7          52.95          65.26          -9.49          19.62          -49.2          -8.93          125.1          100.4          150.2
    0.4434              -46.28          30.69          52.95          65.25         -9.487          19.61          -49.2         -8.908          125.0          100.4          150.2
    0.4804              -46.27          30.69          52.96          65.25         -9.483          19.61          -49.2         -8.884          124.9          100.3          150.2
    0.5174              -46.26          30.68          52.96          65.25         -9.479          19.61          -49.2         -8.858          124.9          100.3          150.1
    0.5543              -46.26          30.68          52.96          65.24         -9.475           19.6          -49.2          -8.83          124.8          100.3          150.1
    0.5913              -46.24          30.67          52.97          65.23          -9.47           19.6          -49.2         -8.799          124.7          100.2          150.1
    0.6282              -46.23          30.66          52.97          65.23         -9.465          19.59         -49.21         -8.766          124.6          100.2          150.1
    0.6652              -46.22          30.65          52.98          65.22          -9.46          19.59         -49.21          -8.73          124.5          100.1          150.1
    0.7021              -46.21          30.65          52.98          65.21         -9.454          19.58         -49.21          -8.69          124.3          100.1          150.1
    0.7391              -46.19          30.64          52.99          65.21         -9.447          19.58         -49.21         -8.646          124.2          100.0          150.0
     0.776              -46.17          30.63          52.99           65.2          -9.44          19.57         -49.21         -8.598          124.1          99.98          150.0
     0.813              -46.16          30.61           53.0          65.19         -9.432          19.56         -49.22         -8.544          123.9          99.91          150.0
    0.8499              -46.13           30.6          53.01          65.18         -9.423          19.56         -49.22         -8.485          123.7          99.83          150.0
    0.8869              -46.11          30.59          53.02          65.17         -9.413          19.55         -49.22          -8.42          123.5          99.75          149.9
    0.9239              -46.09          30.57          53.03          65.15         -9.402          19.54         -49.22         -8.347          123.3          99.66          149.9
    0.9608              -46.06          30.55          53.04          65.14          -9.39          19.53         -49.23         -8.265          123.0          99.55          149.9
    0.9978              -46.03          30.53          53.05          65.12         -9.376          19.51         -49.23         -8.172          122.8          99.43          149.8
     1.035              -45.99          30.51          53.06           65.1         -9.361           19.5         -49.24         -8.068          122.4           99.3          149.8
     1.072              -45.95          30.49          53.08          65.08         -9.343          19.48         -49.24          -7.95          122.1          99.15          149.7
     1.109               -45.9          30.46           53.1          65.06         -9.323          19.46         -49.25         -7.815          121.7          98.98          149.6
     1.146              -45.85          30.42          53.12          65.03         -9.299          19.44         -49.26          -7.66          121.2          98.78          149.5
     1.183              -45.78          30.39          53.14          64.99         -9.273          19.42         -49.26         -7.481          120.6          98.55          149.5
     1.219              -45.71          30.34          53.17          64.96         -9.241          19.39         -49.27         -7.273          120.0          98.28          149.4
     1.256              -45.63          30.29           53.2          64.91         -9.205          19.36         -49.29          -7.03          119.3          97.97          149.2
     1.293              -45.53          30.23          53.24          64.86         -9.162          19.32          -49.3         -6.743          118.4          97.61          149.1
      1.33              -45.41          30.15          53.29           64.8         -9.111          19.27         -49.32         -6.402          117.3          97.17          148.9
     1.367              -45.26          30.07          53.34          64.72          -9.05          19.22         -49.33         -5.994          116.1          96.65          148.7
     1.404              -45.09          29.96          53.41          64.63         -8.976          19.15         -49.36         -5.499          114.6          96.02          148.5
     1.441              -44.88          29.83          53.49          64.52         -8.885          19.07         -49.39         -4.896          112.7          95.25          148.2
     1.478              -44.62          29.67          53.59          64.39         -8.773          18.96         -49.42         -4.151          110.5          94.29          147.8
     1.515              -44.29          29.47          53.71          64.22         -8.634          18.84         -49.46         -3.221          107.6          93.11          147.3
     1.552              -43.89          29.22          53.87          64.01         -8.459          18.68         -49.52         -2.051          104.0          91.61          146.7
